<?xml version="1.0" encoding="utf-8"?>
<!-- Generator: Adobe Illustrator 17.0.0, SVG Export Plug-In . SVG Version: 6.00 Build 0)  -->
<!DOCTYPE svg PUBLIC "-//W3C//DTD SVG 1.1//EN" "http://www.w3.org/Graphics/SVG/1.1/DTD/svg11.dtd">
<svg version="1.1" id="Layer_1" xmlns="http://www.w3.org/2000/svg" xmlns:xlink="http://www.w3.org/1999/xlink" x="0px" y="0px"
	 width="700px" height="300px" viewBox="0 0 700 300" enable-background="new 0 0 700 300" xml:space="preserve">
<path fill="none" stroke="#FFB703" stroke-width="2" stroke-miterlimit="10" d="M0,50c58.332,0,58.332,200,116.663,200
	c58.332,0,58.332-200,116.665-200s58.333,200,116.666,200S408.327,50,466.659,50c58.335,0,58.335,200,116.671,200
	C641.665,250,641.665,50,700,50"/>
<path fill="none" stroke="#FF8206" stroke-width="2" stroke-miterlimit="10" d="M0,50c58.332,0,58.332,186,116.663,186
	c58.332,0,58.332-172,116.665-172s58.333,172,116.666,172S408.327,64,466.659,64c58.335,0,58.335,172,116.671,172
	C641.665,236,641.665,50,700,50"/>
<path fill="none" stroke="#FF6501" stroke-width="2" stroke-miterlimit="10" d="M0,50c58.332,0,58.332,170,116.663,170
	c58.332,0,58.332-140,116.665-140s58.333,140,116.666,140S408.327,80,466.659,80c58.335,0,58.335,140,116.671,140
	C641.665,220,641.665,50,700,50"/>
<path fill="none" stroke="#FF0903" stroke-width="2" stroke-miterlimit="10" d="M0,50c58.332,0,58.332,150,116.663,150
	c58.332,0,58.332-100,116.665-100s58.333,100,116.666,100s58.333-100,116.665-100c58.335,0,58.335,100,116.671,100
	C641.665,200,641.665,50,700,50"/>
</svg>
